####
#
# OBJ File Generated by Meshlab
#
####
# Object result.obj
#
# Vertices: 91
# Faces: 78
#
####
vn 0.0000000 1.5707964 0.0000000
v 0.6032470 0.0896237 0.5352870
vn 0.0000000 1.5707964 0.0000000
v 0.3616630 0.0896237 0.5352870
vn 0.0000000 1.5707964 0.0000000
v 0.3616630 0.0896237 0.7768710
vn 0.0000000 1.5707964 0.0000000
v 0.6032470 0.0896237 0.7768710
vn 0.0000000 1.5707964 0.0000000
v 0.3012670 0.0896237 0.5352870
vn 0.0000000 1.5707964 0.0000000
v 0.0596824 0.0896237 0.5352870
vn 0.0000000 1.5707964 0.0000000
v 0.0596824 0.0896237 0.7768710
vn 0.0000000 1.5707964 0.0000000
v 0.3012670 0.0896237 0.7768710
vn -1.5707964 -1.5707964 -1.5707964
v 0.0250000 0.0250000 0.3710400
vn 1.5707964 -1.5707964 -1.5707964
v 0.6289600 0.0250000 0.3710400
vn 1.5707964 1.5707964 -1.5707964
v 0.6289600 0.0853960 0.3710400
vn -1.5707964 1.5707964 -1.5707964
v 0.0250000 0.0853960 0.3710400
vn -1.5707964 -1.5707964 1.5707964
v 0.0250000 0.0250000 0.9750000
vn 1.5707964 -1.5707964 1.5707964
v 0.6289600 0.0250000 0.9750000
vn 1.5707964 1.5707964 1.5707964
v 0.6289600 0.0853960 0.9750000
vn -1.5707964 1.5707964 1.5707964
v 0.0250000 0.0853960 0.9750000
vn 0.0000000 0.7856659 1.3601949
v 0.5987620 0.5854550 0.0948022
vn 0.0000000 0.7856659 1.3601949
v 0.0551980 0.5854550 0.0948022
vn 0.0000000 0.7856659 1.3601949
v 0.0551980 0.1147680 0.3666770
vn 0.0000000 0.7856659 1.3601949
v 0.5987620 0.1147680 0.3666770
vn -1.5707905 -0.5758030 2.1455128
v 0.0250000 0.0852079 0.3790900
vn 1.5707905 -0.5758030 2.1455128
v 0.6289600 0.0852079 0.3790900
vn 1.5708009 -2.1455235 -0.5758072
v 0.6289600 0.0550306 0.3267730
vn -1.5708009 -2.1455235 -0.5758072
v 0.0250000 0.0550306 0.3267730
vn -1.5708014 2.1455245 0.5758054
v 0.0250000 0.6083720 0.0773164
vn 1.5708014 2.1455245 0.5758054
v 0.6289600 0.6083720 0.0773164
vn 1.5707923 0.5758039 -2.1455145
v 0.6289600 0.5781950 0.0250000
vn -1.5707923 0.5758039 -2.1455145
v 0.0250000 0.5781950 0.0250000
vn -1.5707964 -1.5707964 -1.5707964
v 0.2263200 0.0451320 0.3710400
vn 1.5707964 -1.5707964 -1.5707964
v 0.4276400 0.0652640 0.3710400
vn -1.5707964 -1.5707964 -1.5707964
v 0.2263200 0.0250000 0.7736800
vn -1.5707964 -1.5707964 -1.5707964
v 0.4276400 0.0250000 0.5723600
vn -1.5707964 -1.5707964 -1.5707964
v 0.0250000 0.0451320 0.5723600
vn -1.5707964 1.5707964 -1.5707964
v 0.0250000 0.0652640 0.7736800
vn -1.5707964 1.5707964 -1.5707964
v 0.2263200 0.0853960 0.7736800
vn -1.5707964 1.5707964 -1.5707964
v 0.4276400 0.0853960 0.5723600
vn 1.5707964 -1.5707964 -1.5707964
v 0.6289600 0.0451320 0.7736800
vn 1.5707964 -1.5707964 -1.5707964
v 0.6289600 0.0652640 0.5723600
vn 1.5707964 -1.5707964 1.5707964
v 0.2263200 0.0451320 0.9750000
vn 1.5707964 -1.5707964 1.5707964
v 0.4276400 0.0652640 0.9750000
vn -1.5707905 -0.5758030 2.1455128
v 0.2263200 0.0751488 0.3616510
vn 1.5707905 -0.5758030 2.1455128
v 0.4276400 0.0650897 0.3442120
vn -1.5707905 -0.5758030 2.1455128
v 0.2263200 0.4339840 0.1779076
vn -1.5707905 -0.5758030 2.1455128
v 0.4276400 0.2595959 0.2784988
vn -1.5707905 -0.5758030 2.1455128
v 0.0250000 0.2495368 0.2610598
vn -1.5708009 -2.1455235 -0.5758072
v 0.0250000 0.4138659 0.1430298
vn -1.5708009 -2.1455235 -0.5758072
v 0.2263200 0.4038069 0.1255910
vn -1.5708009 -2.1455235 -0.5758072
v 0.4276400 0.2294187 0.2261820
vn 1.5707905 -0.5758030 2.1455128
v 0.6289600 0.4239250 0.1604688
vn 1.5707905 -0.5758030 2.1455128
v 0.6289600 0.2394778 0.2436210
vn 1.5708014 2.1455245 0.5758054
v 0.2263200 0.5983130 0.0598776
vn 1.5708014 2.1455245 0.5758054
v 0.4276400 0.5882540 0.0424388
vn 0.0000000 1.5707964 0.0000000
v 0.4824550 0.0896237 0.6560790
vn 0.0000000 1.5707964 0.0000000
v 0.1804747 0.0896237 0.6560790
vn -1.5707964 1.5707964 -1.5707964
v 0.3269800 0.0551980 0.3710400
vn -1.5707964 1.5707964 -1.5707964
v 0.3269800 0.0853960 0.3710400
vn 1.5707964 -1.5707964 1.5707964
v 0.3269800 0.0250000 0.9750000
vn 1.5707964 -1.5707964 -1.5707964
v 0.6289600 0.0250000 0.6730200
vn -1.5707964 -1.5707964 1.5707964
v 0.0250000 0.0551980 0.6730200
vn -1.5707964 -1.5707964 1.5707964
v 0.0250000 0.0551980 0.9750000
vn -1.5707964 1.5707964 1.5707964
v 0.3269800 0.0853960 0.9750000
vn 1.5707964 1.5707964 1.5707964
v 0.6289600 0.0853960 0.6730200
vn 1.5707964 1.5707964 1.5707964
v 0.6289600 0.0551980 0.9750000
vn 0.0000000 0.7856659 1.3601949
v 0.3269800 0.3501115 0.2307396
vn -1.5708009 -2.1455235 -0.5758072
v 0.3269800 0.0701192 0.3529315
vn -1.5708009 -2.1455235 -0.5758072
v 0.3269800 0.0550306 0.3267730
vn 1.5708014 2.1455245 0.5758054
v 0.3269800 0.6083720 0.0773164
vn 1.5707905 -0.5758030 2.1455128
v 0.6289600 0.3467900 0.2282032
vn -1.5708014 2.1455245 0.5758054
v 0.0250000 0.3317013 0.2020447
vn -1.5708014 2.1455245 0.5758054
v 0.0250000 0.5932835 0.0511582
vn -1.5707923 0.5758039 -2.1455145
v 0.3269800 0.5781950 0.0250000
vn 1.5707923 0.5758039 -2.1455145
v 0.6289600 0.3166128 0.1758865
vn 1.5707923 0.5758039 -2.1455145
v 0.6289600 0.5932835 0.0511582
vn 1.5707964 -1.5707964 -1.5707964
v 0.3269800 0.0250000 0.3710400
vn -1.5707964 -1.5707964 -1.5707964
v 0.0250000 0.0551980 0.3710400
vn 1.5707964 1.5707964 -1.5707964
v 0.6289600 0.0551980 0.3710400
vn -1.5707964 -1.5707964 1.5707964
v 0.0250000 0.0250000 0.6730200
vn -1.5707964 -1.5707964 -1.5707964
v 0.3269800 0.0250000 0.6730200
vn -1.5707964 1.5707964 1.5707964
v 0.0250000 0.0853960 0.6730200
vn 1.5707964 1.5707964 1.5707964
v 0.3269800 0.0853960 0.6730200
vn 1.5707964 -1.5707964 -1.5707964
v 0.6289600 0.0551980 0.6730200
vn 1.5707964 -1.5707964 1.5707964
v 0.3269800 0.0551980 0.9750000
vn 1.5707905 -0.5758030 2.1455128
v 0.3269800 0.0852079 0.3790900
vn -1.5707905 -0.5758030 2.1455128
v 0.0250000 0.0701192 0.3529315
vn 1.5708009 -2.1455235 -0.5758072
v 0.6289600 0.0701192 0.3529315
vn -1.5708014 2.1455245 0.5758054
v 0.0250000 0.3467900 0.2282032
vn -1.5707905 -0.5758030 2.1455128
v 0.3269800 0.3467900 0.2282032
vn -1.5707923 0.5758039 -2.1455145
v 0.0250000 0.3166128 0.1758865
vn 1.5707923 0.5758039 -2.1455145
v 0.3269800 0.3166128 0.1758865
vn 1.5707905 -0.5758030 2.1455128
v 0.6289600 0.3317015 0.2020450
vn 1.5708014 2.1455245 0.5758054
v 0.3269800 0.5932835 0.0511582
# 91 vertices, 0 vertices normals

f 4//4 1//1 53//53 3//3
f 1//1 2//2 3//3 53//53
f 8//8 5//5 54//54 7//7
f 5//5 6//6 7//7 54//54
f 55//55 10//10 74//74 29//29
f 56//56 11//11 76//76 30//30
f 57//57 13//13 77//77 31//31
f 58//58 14//14 78//78 32//32
f 59//59 12//12 75//75 33//33
f 60//60 16//16 79//79 34//34
f 61//61 15//15 80//80 35//35
f 62//62 11//11 56//56 36//36
f 63//63 14//14 58//58 37//37
f 62//62 15//15 81//81 38//38
f 60//60 13//13 57//57 39//39
f 61//61 16//16 82//82 40//40
f 20//20 17//17 64//64 19//19
f 17//17 18//18 19//19 64//64
f 65//65 22//22 83//83 41//41
f 66//66 23//23 85//85 42//42
f 67//67 25//25 86//86 43//43
f 68//68 26//26 87//87 44//44
f 69//69 24//24 84//84 45//45
f 70//70 28//28 88//88 46//46
f 71//71 27//27 89//89 47//47
f 72//72 23//23 66//66 48//48
f 73//73 26//26 68//68 49//49
f 72//72 27//27 90//90 50//50
f 70//70 25//25 67//67 51//51
f 71//71 28//28 91//91 52//52
f 74//74 9//9 75//75 29//29
f 12//12 55//55 29//29 75//75
f 76//76 10//10 55//55 30//30
f 12//12 56//56 30//30 55//55
f 77//77 9//9 78//78 31//31
f 14//14 57//57 31//31 78//78
f 78//78 9//9 74//74 32//32
f 10//10 58//58 32//32 74//74
f 75//75 9//9 77//77 33//33
f 13//13 59//59 33//33 77//77
f 79//79 12//12 59//59 34//34
f 13//13 60//60 34//34 59//59
f 80//80 12//12 79//79 35//35
f 16//16 61//61 35//35 79//79
f 56//56 12//12 80//80 36//36
f 15//15 62//62 36//36 80//80
f 58//58 10//10 81//81 37//37
f 15//15 63//63 37//37 81//81
f 81//81 10//10 76//76 38//38
f 11//11 62//62 38//38 76//76
f 57//57 14//14 82//82 39//39
f 16//16 60//60 39//39 82//82
f 82//82 14//14 63//63 40//40
f 15//15 61//61 40//40 63//63
f 83//83 21//21 84//84 41//41
f 24//24 65//65 41//41 84//84
f 85//85 22//22 65//65 42//42
f 24//24 66//66 42//42 65//65
f 86//86 21//21 87//87 43//43
f 26//26 67//67 43//43 87//87
f 87//87 21//21 83//83 44//44
f 22//22 68//68 44//44 83//83
f 84//84 21//21 86//86 45//45
f 25//25 69//69 45//45 86//86
f 88//88 24//24 69//69 46//46
f 25//25 70//70 46//46 69//69
f 89//89 24//24 88//88 47//47
f 28//28 71//71 47//47 88//88
f 66//66 24//24 89//89 48//48
f 27//27 72//72 48//48 89//89
f 68//68 22//22 90//90 49//49
f 27//27 73//73 49//49 90//90
f 90//90 22//22 85//85 50//50
f 23//23 72//72 50//50 85//85
f 67//67 26//26 91//91 51//51
f 28//28 70//70 51//51 91//91
f 91//91 26//26 73//73 52//52
f 27//27 71//71 52//52 73//73
# 78 faces, 0 coords texture

# End of File
